<?xml version="1.0" encoding="UTF-8"?>
<svg width="203px" height="145px" viewBox="0 0 203 145" version="1.1" xmlns="http://www.w3.org/2000/svg" xmlns:xlink="http://www.w3.org/1999/xlink">
    <title>keys</title>
    <g id="keys" stroke="none" stroke-width="1" fill="none" fill-rule="evenodd">
        <g id="left" transform="translate(22.000000, 48.000000)" stroke="#FFFFFF" stroke-width="3">
            <rect id="Rectangle" fill-opacity="0.0817307692" fill="#000000" x="1.5" y="1.5" width="45" height="45" rx="8"></rect>
            <line x1="36" y1="24" x2="12" y2="24" id="Path-9"></line>
            <polyline id="Path-10" points="21 33.8474662 12 23.8252345 21 13.8474662"></polyline>
        </g>
        <g id="right" transform="translate(158.000000, 72.000000) scale(-1, 1) translate(-158.000000, -72.000000) translate(134.000000, 48.000000)" stroke="#FFFFFF" stroke-width="3">
            <rect id="Rectangle" fill-opacity="0.0817307692" fill="#000000" x="1.5" y="1.5" width="45" height="45" rx="8"></rect>
            <line x1="36" y1="24" x2="12" y2="24" id="Path-9"></line>
            <polyline id="Path-10" points="21 33.8474662 12 23.8252345 21 13.8474662"></polyline>
        </g>
        <g id="up" transform="translate(102.000000, 43.000000) scale(-1, 1) rotate(-270.000000) translate(-102.000000, -43.000000) translate(78.000000, 19.000000)" stroke="#FFFFFF" stroke-width="3">
            <rect id="Rectangle" fill-opacity="0.0817307692" fill="#000000" x="1.5" y="1.5" width="45" height="45" rx="8"></rect>
            <line x1="36" y1="24" x2="12" y2="24" id="Path-9"></line>
            <polyline id="Path-10" points="21 33.8474662 12 23.8252345 21 13.8474662"></polyline>
        </g>
        <g id="down" transform="translate(102.000000, 101.000000) scale(-1, 1) rotate(-90.000000) translate(-102.000000, -101.000000) translate(78.000000, 77.000000)" stroke="#FFFFFF" stroke-width="3">
            <rect id="Rectangle" fill-opacity="0.0817307692" fill="#000000" x="1.5" y="1.5" width="45" height="45" rx="8"></rect>
            <line x1="36" y1="24" x2="12" y2="24" id="Path-9"></line>
            <polyline id="Path-10" points="21 33.8474662 12 23.8252345 21 13.8474662"></polyline>
        </g>
    </g>
</svg>